<svg xmlns="http://www.w3.org/2000/svg" xmlns:xlink="http://www.w3.org/1999/xlink" id="body_1" width="320" height="320"><g><g><path fill="#064F8C" fill-rule="nonzero" stroke="none" d="M21.3 3.8L3.6 38.8L22.9 22.4L21.3 3.8" transform="matrix(5 0 0 5 -0 9.536743E-06) matrix(2.2190473 0 0 2.2190473 -14.603456 -34.57142) matrix(0.7945236 0 0 0.7945236 3.8001251 12.63966)"/><path fill="#249847" fill-rule="nonzero" stroke="none" d="M38.6 39.9L14.8 30.3L3.5 39.9L38.6 39.9" transform="matrix(5 0 0 5 -0 9.536743E-06) matrix(2.2190473 0 0 2.2190473 -14.603456 -34.57142) matrix(0.7945236 0 0 0.7945236 3.8001251 12.63966)"/><path fill="#BE2128" fill-rule="nonzero" stroke="none" d="M39.8 39.6L22.1 4.4L24.7 33.5L39.8 39.6" transform="matrix(5 0 0 5 -0 9.536743E-06) matrix(2.2190473 0 0 2.2190473 -14.603456 -34.57142) matrix(0.7945236 0 0 0.7945236 3.8001251 12.63966)"/><path fill="#CDCDCE" fill-rule="nonzero" stroke="none" d="M23.9 33.2L23 23.3L15.4 29.8L23.9 33.2" transform="matrix(5 0 0 5 -0 9.536743E-06) matrix(2.2190473 0 0 2.2190473 -14.603456 -34.57142) matrix(0.7945236 0 0 0.7945236 3.8001251 12.63966)"/></g></g></svg>