<?xml version="1.0" standalone="no"?>
<!DOCTYPE svg PUBLIC "-//W3C//DTD SVG 1.0//EN" "http://www.w3.org/TR/2001/REC-SVG-20010904/DTD/svg10.dtd">
<svg xmlns="http://www.w3.org/2000/svg" xmlns:xlink="http://www.w3.org/1999/xlink" id="body_1" width="401" height="392">

<g transform="matrix(0.7495327 0 0 0.749522 0 0)">
    <path d="M91.5 309C 91.5 308.997 63.186 315.296 63.186 315.296C 63.186 315.296 79.883 289.361 79.883 289.361C 79.883 289.361 99 245.989 99 245.989C 99 245.989 41.794 221.051 41.794 221.051C 41.794 221.051 6.661 165.673 6.661 165.673C 6.661 165.673 2.307 95.593 2.307 95.593C 2.307 95.593 28.872 40.44 28.872 40.44C 28.872 40.44 84.242 6.375 84.242 6.375C 84.242 6.375 153.15 2.751 153.15 2.751C 153.15 2.751 195.162 23.911 195.162 23.911C 195.162 23.911 218.968 25.476 218.968 25.476C 218.968 25.476 200.899 42.256 200.899 42.256C 200.899 42.256 145.9 36.7 145.9 36.7C 145.9 36.7 97.048 49.861 97.048 49.861C 97.048 49.861 69.59 81.336 69.59 81.336C 69.59 81.336 60.694 125.451 60.694 125.451C 60.694 125.451 78.831 158.713 78.831 158.713C 78.831 158.713 103.691 161.677 103.691 161.677C 103.691 161.677 192.062 73.793 192.062 73.793C 192.062 73.793 238.47 67.368 238.47 67.368C 238.47 67.368 284.431 93.409 284.431 93.409C 284.431 93.409 305.113 77.538 305.113 77.538C 305.113 77.538 335.818 67.081 335.818 67.081C 335.818 67.081 373.433 79.831 373.433 79.831C 373.433 79.831 436.3 155.716 436.3 155.716C 436.3 155.716 459.1 159.952 459.1 159.952C 459.1 159.952 478 134.48 478 134.48C 478 134.48 476.231 88 476.231 88C 476.231 88 450.819 51.731 450.819 51.731C 450.819 51.731 415.2 39.7 415.2 39.7C 415.2 39.7 386.384 44.701 386.384 44.701C 386.384 44.701 350.4 41.851 350.4 41.851C 350.4 41.851 345.3 30.5 345.3 30.5C 345.3 30.5 375.1 18.8 375.1 18.8C 375.1 18.8 399 6.7 399 6.7C 399 6.7 435.6 4.215625 435.6 4.215625C 435.6 4.215625 489.5 25.2 489.5 25.2C 489.5 25.2 527.4 77.7 527.4 77.7C 527.4 77.7 532.3 152.2 532.3 152.2C 532.3 152.2 499.6 212.8 499.6 212.8C 499.6 212.8 453.6 235.9 453.6 235.9C 453.6 235.9 454.8 253.6 454.8 253.6C 454.8 253.6 467.6 255.2 467.6 255.2C 467.6 255.2 462.3 267.1 462.3 267.1C 462.3 267.1 432.4 268.2 432.4 268.2C 432.4 268.2 374.8 242.7 374.8 242.7C 374.8 242.7 383.1 277.3 383.1 277.3C 383.1 277.3 411.4 277.3 411.4 277.3C 411.4 277.3 419.8 306.6 419.8 306.6C 419.8 306.6 391.5 339.7 391.5 339.7C 391.5 339.7 406.8 357.9 406.8 357.9C 406.8 357.9 387.3 376.1 387.3 376.1C 387.3 376.1 384.3 403.8 384.3 403.8C 384.3 403.8 344.9 415.4 344.9 415.4C 344.9 415.4 354.5 446.4 354.5 446.4C 354.5 446.4 293.4 501.2 293.4 501.2C 293.4 501.2 251.45 449 251.45 449C 251.45 449 221.228 446.405 221.228 446.405C 221.228 446.405 229.841 415.409 229.841 415.409C 229.841 415.409 195.339 399.56 195.339 399.56C 195.339 399.56 195.943 376.166 195.943 376.166C 195.943 376.166 172.06 352.434 172.06 352.434L172.06 352.434L153.194 287.1C 153.194 287.1 91.5 308.997 91.5 308.997L91.5 308.997L91.5 309z" stroke="none" fill="#FFFFFF" fill-rule="nonzero" />
    <path d="M112.993 304.372C 109.35899 304.61902 104.628 306.247 101.453995 311.936C 98.86299 316.582 92.79299 317.323 89.95899 316.387C 85.23799 314.827 79.203995 313.745 73.35899 317.91C 67.51399 322.074 61.201996 318.92502 62.308994 311.334C 63.415993 303.74402 66.158 296.983 73.436 292.79602C 89.33099 283.652 78.284 277.28802 87.007996 268.11102C 95.74899 258.91602 93.81799 256.10202 93.52799 243.61403C 63.984993 239.17603 47.240993 230.66103 28.543991 207.30103C 9.846991 183.94003 2.5989914 164.71103 0.66099167 135.42303C -1.2770083 106.13503 0.40299168 87.15404 13.056992 62.843033C 25.71099 38.53203 39.03399 26.829033 62.12199 14.690033C 85.21 2.553 107.832 -0.354 128.742 0C 149.65201 0.353 163.585 1.885 175.40001 8.626C 187.214 15.367001 198.022 23.85 204.912 23.911C 211.80301 23.972 216.494 22.167 219.843 19.601C 220.737 42.304 200.304 44.276 182.024 44.756C 163.743 45.235 152.51001 37.673 135.673 40.486C 118.836 43.299 91.269 50.961 77.84 74.336C 64.410995 97.711 63.952995 105.974 65.069 125.576004C 66.185 145.179 83.057 159.804 92.581 159.96301C 102.104004 160.12201 104.23 157.36401 112.566 151.92702C 120.903 146.48901 163.462 93.805016 177.98401 81.971016C 192.507 70.13702 206.83801 66.48302 222.31201 66.293015C 237.78601 66.10301 241.74 66.62801 254.22002 71.74301C 266.7 76.85701 274.36902 86.27601 284.43103 92.03401C 289.57404 89.00701 292.76904 84.487015 297.48804 81.03801C 314.36505 68.70301 323.13403 65.37901 343.19305 67.33101C 354.72205 68.45301 369.25906 75.03901 377.93304 82.58101C 393.37805 96.01001 406.13803 114.70601 416.44904 128.90901C 424.47803 139.97002 433.92603 153.20401 447.41403 157.341C 462.14102 161.856 473.22302 142.782 474.85004 132.202C 475.77203 126.20699 476.97504 120.952995 476.98505 114.354996C 476.99506 107.756 476.32104 99.74799 474.41904 92.870995C 472.51703 85.993996 469.25903 79.15099 465.73105 73.477C 459.98904 64.242 450.59406 54.577995 440.81906 49.605995C 435.33307 46.815994 422.42606 41.742996 414.29007 41.564995C 404.32108 41.348995 396.72607 44.697994 387.50906 45.325996C 376.35306 46.086998 356.42505 48.594997 347.67908 39.975998C 342.11307 34.490997 341.4131 30.831997 340.46207 23.679998C 342.92108 25.705997 346.36008 27.037998 349.42108 27.296999C 356.40707 27.887 362.9481 22.182999 368.5871 18.877998C 373.2321 16.154999 379.8101 11.288998 385.9111 8.829998C 401.5871 2.5099978 420.8431 2.691998 437.3911 4.384998C 450.65512 5.740998 467.8521 11.641998 479.4851 18.224998C 491.1731 24.836998 502.4361 35.986 510.6861 46.496C 521.0651 59.719997 526.7391 71.065994 530.4981 87.559C 535.3031 108.621 536.63513 140.261 530.8261 161.028C 526.2481 177.393 511.04712 202.532 498.10712 214.855C 485.34512 227.01 470.60913 232.877 453.8511 236.086C 454.5071 239.468 454.6151 242.622 455.48212 245.395C 456.7141 249.33101 459.07013 253.71901 463.91013 252.33101C 465.84012 251.77802 466.87314 251.29901 469.41812 253.52501C 471.96112 255.751 470.63712 264.35 463.48013 268.209C 459.85114 270.16602 456.02112 270.591 450.20914 270.707C 444.39716 270.823 435.32614 270.848 429.01614 269.743C 422.70715 268.639 418.93814 263.63202 411.95013 262.84802C 401.15112 261.64 392.88214 253.83803 384.22314 248.25803C 380.61014 245.92903 379.39114 245.90503 377.30914 244.72803C 378.43414 248.17203 379.93414 251.74902 380.68213 255.06003C 381.43213 258.37103 381.11212 261.43802 381.51013 264.088C 381.90613 266.73602 382.64114 268.795 383.06912 270.94302C 384.79913 272.49002 385.3521 274.84302 388.25812 275.58304C 391.1661 276.32205 395.71912 275.17105 398.69412 274.77103C 401.66913 274.371 403.66312 272.75003 405.99713 273.19403C 408.33313 273.63702 410.54614 275.30902 412.50314 276.87604C 414.46014 278.44305 416.14215 278.67203 417.72614 282.58203C 419.31012 286.49203 420.76312 294.49902 420.98013 299.85104C 421.19714 305.20306 420.59714 310.03406 419.01114 314.28104C 417.42514 318.528 416.03113 320.41104 411.73615 324.61703C 407.44113 328.82404 400.44714 334.99704 393.46814 339.29703C 394.75314 341.20004 395.32315 342.94202 397.32715 345.00702C 399.33115 347.07303 403.50916 349.38803 405.36816 351.56702C 407.22516 353.746 408.16718 355.30902 408.19415 357.75302C 408.22314 360.196 408.10416 363.372 406.12015 366.036C 401.17914 372.669 395.33514 373.85703 388.22916 376.97702C 389.42416 384.43903 390.39917 389.77002 388.67215 397.221C 387.96716 400.25702 386.40115 407.14102 382.65616 408.907C 378.91016 410.673 371.68716 409.81802 367.11517 410.544C 362.54318 411.271 359.98416 411.961 356.42017 412.669C 354.25418 415.80002 351.02917 419.255 349.92416 422.061C 348.81717 424.868 349.15115 425.874 350.08017 428.74C 351.0092 431.606 354.17218 435.779 355.06818 439.13498C 355.96417 442.49097 356.13818 446.10397 355.3022 449.469C 354.46417 452.83398 353.0312 455.276 350.16318 458.264C 347.29617 461.25302 341.65518 463.6 338.84518 466.022C 336.03317 468.445 333.2342 468.736 334.0012 472.745C 335.05618 478.251 343.1012 487.181 348.9212 489.307C 352.4092 490.582 357.09122 490.18 361.3272 488.392C 361.04022 493.095 356.9702 496.26498 354.31122 499.388C 361.5122 497.329 368.4952 493.387 373.32523 488.162C 371.82724 492.69998 366.67322 499.985 358.96423 506.382C 351.25522 512.779 351.30225 511.47 347.47025 514.015C 354.46225 515.42004 360.96423 515.04004 366.38025 514.067C 363.41125 515.70404 358.54425 518.00604 352.09726 518.68304C 345.65027 519.3591 341.67526 518.88104 335.86526 517.47003C 330.05426 516.05804 324.75027 510.77603 317.70926 507.13504C 318.39526 509.74704 318.88327 512.88806 321.84427 515.57404C 324.80527 518.26 329.28528 519.62604 334.04727 521.94904C 327.98526 521.26105 321.61526 521.05304 315.65826 519.74005C 311.24826 518.767 308.28528 517.73505 305.05826 516.137C 301.83325 514.539 299.34326 512.208 296.48627 510.24402C 297.85526 512.859 298.26126 515.935 300.59128 518.091C 302.9213 520.247 306.70828 521.05 309.77127 522.531C 306.57626 522.461 303.50327 523.154 300.19128 522.321C 296.8773 521.488 293.7693 520.17896 290.32428 517.641C 286.87927 515.103 283.3263 511.978 280.3863 508.783C 277.4483 505.58798 273.82028 501.44598 272.7223 498.5C 271.62228 495.553 273.3823 493.492 273.71228 490.991C 271.6833 492.324 269.1873 493.05798 267.62827 494.993C 266.06924 496.92804 264.68726 498.695 265.37726 502.06802C 266.06827 505.441 269.18124 509.56403 271.38226 513.31604C 264.81427 507.94504 261.14627 505.87704 259.58325 499.39804C 258.12024 493.33203 261.90524 487.82605 264.78226 483.23904C 266.21124 480.96103 268.34924 478.84103 269.68524 476.64203C 266.71823 473.739 263.32724 471.24402 260.78424 467.93304C 258.24225 464.62305 257.17426 460.14304 254.57924 456.97604C 251.98325 453.80804 248.49124 451.80304 245.45024 449.22003C 248.12325 454.96204 252.51624 462.00504 253.47025 466.44904C 254.42325 470.89304 252.40125 473.61304 250.82425 476.01202C 249.24625 478.411 246.70026 478.946 244.28525 480.42C 241.87025 481.89502 238.11424 480.73203 236.67525 482.92102C 235.23724 485.109 234.85124 488.40103 236.22624 490.56903L236.22624 490.56903L241.86624 499.47104C 239.78824 498.42203 236.20824 495.37103 234.59424 493.20703C 232.98024 491.04303 230.50424 489.04404 230.16524 486.11804C 229.82623 483.19305 229.66124 480.65405 231.55624 478.04803C 233.45224 475.44302 238.64224 474.57104 240.96524 472.56802C 243.28824 470.56503 244.59125 469.26102 244.45824 466.67203C 244.32623 464.08304 241.79724 462.23102 239.62323 460.59903C 232.98624 455.62103 224.47223 451.03403 218.83623 445.03403C 215.65222 441.644 214.12422 438.907 213.48422 436.56802C 212.84521 434.23 213.52122 432.40604 215.10323 429.53003C 216.68523 426.653 222.11023 422.81204 222.77023 419.68704C 223.42923 416.56305 220.68924 415.89203 218.21623 414.79004C 215.74323 413.68805 211.04623 415.35504 208.75223 413.43805C 206.45923 411.52106 209.42622 407.49304 206.84123 405.28406C 204.25723 403.07504 198.34224 404.30804 195.28923 401.93207C 192.23624 399.55505 190.97423 396.60507 189.92223 393.15707C 188.87022 389.70908 188.75122 385.93207 189.46423 383.43506C 190.17725 380.93805 192.31923 380.50107 193.61124 379.20706C 194.90324 377.91306 196.02423 376.84006 194.30223 374.91006C 192.58023 372.98108 186.93723 375.01807 183.69324 372.54108C 180.44923 370.0641 182.43524 364.13107 180.14124 361.63007C 177.84824 359.12906 173.73224 360.10806 171.56024 359.30905C 169.38924 358.51004 168.53725 361.32904 167.20525 356.87106C 165.87325 352.41205 165.83725 339.12106 164.04524 334.16107C 162.25323 329.20108 158.73424 333.82608 157.10023 328.89606C 155.46623 323.96707 157.01523 316.08405 156.27924 308.63907L156.27924 308.63907L152.94423 288.38208C 141.31023 296.19708 133.63023 298.6511 121.131226 300.85907C 120.08823 331.44107 117.215225 349.45007 127.59522 383.37906C 137.97522 417.30707 158.98222 437.30307 187.32123 466.02808C 149.92622 438.0121 132.07323 415.23608 120.89923 386.05807C 109.723 356.876 111.869 332.472 112.993 304.372zM311.701 292.08C 314.578 292.20898 318.07397 292.939 320.094 294.25098C 322.115 295.563 324.25998 296.63498 326.094 298.50198C 330.66998 303.162 334.102 308.78198 335.619 315.24C 336.586 319.357 336.72998 324.637 337.082 329.47098C 335.697 325.003 334.766 320.34396 332.793 316.34097C 329.682 310.02896 324.397 303.86798 317.83398 301.03098C 315.668 300.093 314.223 300.26697 313.03098 300.43298C 313.56396 301.32797 314.45697 302.07797 314.49597 303.38898C 314.53497 304.69998 314.24197 307.26498 312.01898 308.343C 308.43497 310.082 304.451 308.85898 301.68298 306.412C 298.892 303.94598 297.94098 299.774 299.40198 296.189C 301.143 291.917 307.777 291.906 311.701 292.08zM275.629 286C 275.99 278.655 278.641 272.461 285.223 268.859C 288.62698 266.997 293.871 264.58902 298.69 264.023C 303.319 263.48 314.579 263.877 321.352 266.96802C 326.55298 269.342 330.09598 273.03802 334.663 275.739C 339.229 278.441 342.477 280.252 346.82498 283.282C 353.499 287.933 357.41098 293.05402 362.038 296.12402C 364.263 297.59903 367.393 297.38004 370.347 298.282C 368.05 298.96402 365.04797 299.716 362.56998 298.924C 359.47998 297.936 355.15997 295.11102 352.76297 293.086C 348.52698 289.508 346.33096 287.762 341.70798 285.063C 338.94797 283.455 334.40298 281.56 331.36996 279.582C 328.33496 277.604 323.06696 273.264 320.15097 271.795C 316.44397 269.92902 309.76996 268.89102 305.64297 269.01202C 299.95697 269.178 291.727 270.11603 287.32697 274.10803C 282.95596 278.07602 281.29596 281.56705 282.28195 286.72003C 283.92795 284.82404 285.02396 282.44202 286.67294 281.03204C 290.08893 278.11404 294.00894 277.97305 298.26096 278.52603C 303.03796 279.14804 305.44296 281.90704 307.02097 286.44202C 305.95895 285.66202 304.00696 283.949 302.46597 283.41803C 298.84897 282.17004 296.11398 282.55402 292.72598 284.37103C 288.72598 286.51703 289.814 289.69302 289.23798 293.22504C 288.97397 294.85403 288.35898 296.16605 287.91998 297.63702C 286.416 297.239 285.025 296.61304 283.887 295.48502C 283.934 297.135 283.694 298.578 284.03198 300.43402C 284.36798 302.28903 285.27197 304.493 285.891 306.52203C 283.106 303.73602 280.25598 301.14203 278.457 297.54504C 276.656 293.946 275.436 289.952 275.629 286zM280.449 232.54C 282.502 229.493 283.103 224.819 284.36902 221.019C 283.863 225.832 284.83603 231.125 282.48602 234.611C 280.13602 238.09698 276.00903 237.486 272.59003 238.5C 275.25 236.472 278.395 235.587 280.449 232.54zM231.298 303.908C 233.934 301.774 241.048 303.47998 246.369 303.861C 242.545 304.84 238.72101 305.82 234.897 306.79898C 234.541 308.09998 234.702 309.59097 233.82901 310.69998C 232.95502 311.80997 231.29501 312.22098 230.029 312.97998C 230.154 309.562 228.662 306.041 231.298 303.908zM268.789 155.688C 271.965 157.39801 275.996 159.659 278.801 159.729C 281.606 159.79901 282.34 157.895 283.99 156.796C 286.586 165.261 289.56598 174.56201 293.986 182.24301C 295.83798 185.46101 297.01898 183.96501 298.427 187.199C 299.833 190.432 300.458 197.011 301.792 201.142C 303.128 205.273 304.87 208.313 306.409 211.898C 302.501 206.361 297.452 199.301 295.274 194.693C 293.098 190.086 294.491 189.685 292.72897 185.297C 290.96695 180.909 287.40497 174.069 284.74298 168.455C 282.83698 168.70801 280.477 169.05501 279.02798 168.608C 277.57898 168.161 277.86798 166.62 276.559 165.62401C 275.248 164.628 273.04498 165.014 271.20898 163.42401C 269.373 161.835 268.955 158.574 268.789 155.688zM251.688 197.457C 254.677 197.195 258.389 197.996 261.188 197.837C 263.98697 197.67801 265.985 196.95201 268.384 196.509C 267.939 192.293 268.361 184.547 264.469 181.732C 261.955 179.914 251.62999 181.28299 248.872 181.87799C 242.666 183.21599 235.439 186.91998 229.437 189.236C 235.189 185.21799 240.15799 181.49399 247.05699 179.42C 251.204 178.173 260.882 176.552 265.162 177.708C 267.116 178.23499 267.511 179.04399 268.69598 180.7C 272.77 186.388 272.758 191.304 273.81497 197.93C 274.85397 199.549 275.96097 200.629 276.80298 202.299C 277.64297 203.969 278.119 206.597 278.35397 208.745C 277.28796 207.19899 277.93997 205.26 274.98697 204.109C 272.03198 202.958 267.50797 204.03299 263.52698 204.44899C 266.429 206.54298 267.87097 208.56 267.98196 212.98698C 268.11197 218.18498 263.71097 221.92598 259.11597 222.28198C 252.73697 222.77698 249.44797 221.37598 246.86797 215.92398C 245.73796 213.53598 246.55696 210.66298 246.46297 208.33498C 238.79797 208.86798 238.92297 208.61798 233.32097 213.28897C 236.36597 217.74997 238.28397 220.31497 243.31596 222.98398C 246.13797 224.48198 249.33296 225.93797 252.82996 226.53297C 256.32794 227.12798 262.06494 227.70297 265.73895 227.13898C 269.41394 226.57498 271.49594 225.52597 274.21994 223.00697C 276.94495 220.48697 277.19495 216.87897 278.25894 214.02698C 278.01694 216.77197 277.70193 220.26797 276.68295 222.25897C 273.58295 228.31197 268.22195 230.10597 261.82095 230.12598C 255.67696 230.14598 248.07695 228.72897 242.36096 226.35898C 237.79095 224.46498 230.21497 219.10098 228.41696 214.44098C 227.18796 211.25697 228.16096 207.34998 228.03197 203.80399C 234.35997 199.59598 235.92596 200.63098 243.41296 199.39899C 246.545 198.883 248.699 197.72 251.688 197.457zM214.827 168.956C 215.00499 166.435 215.284 166.489 215.513 165.25499C 209.748 163.71298 207.436 167.45299 204.056 174.39899C 202.791 176.99799 204.043 178.54498 202.686 180.25598C 201.33101 181.96698 199.147 181.72697 196.946 183.36998C 194.745 185.01198 192.564 188.15698 190.506 189.85799C 186.28299 193.34898 180.575 195.47998 175.677 197.82898C 179.022 195.36098 185.513 191.61798 187.613 188.03198C 188.727 186.13098 188.56201 182.54599 190.296 180.83698C 192.029 179.12697 192.636 177.94397 194.87401 177.50798C 197.11201 177.07198 196.212 174.47798 196.934 172.41599C 197.656 170.35399 199.09401 168.88998 200.62401 166.82999C 202.154 164.76999 204.08401 161.67699 207.10501 160.55399C 210.126 159.43 214.837 160.64499 217.12401 159.99799C 219.41 159.35098 218.09702 157.68898 219.75801 156.69098C 221.421 155.69298 224.654 156.13298 226.87502 155.06598C 230.81201 153.17297 232.69502 150.01299 235.06302 146.62997C 235.40701 153.91197 235.32301 159.15497 232.70602 166.00598C 229.75902 173.71698 226.77202 178.25899 218.40802 183.00098C 215.52602 184.63397 212.65802 185.20097 210.26901 186.05798C 211.66202 184.15799 213.656 183.33298 214.449 180.35799C 215.24 177.381 214.649 171.478 214.827 168.956zM349.865 204.463C 345.888 204.722 344.94498 204.19899 341.763 206.443C 343.488 209.127 345.212 211.81099 346.935 214.495C 346.783 209.197 347.299 208.135 349.865 204.463zM339.445 200.613C 344.953 198.26701 349.752 196.369 355.74402 195.994C 358.14603 195.843 361.87503 196.215 364.30103 196.325C 366.36703 193.28299 369.00003 190.884 369.96503 187.412C 370.60403 185.10901 370.28903 174.42 369.15802 171.645C 365.863 163.569 362.66003 163.228 358.12503 158.602C 354.83405 155.24701 354.70303 150.138 353.71902 144.41301C 353.35803 142.31001 352.32602 139.64902 351.842 137.479C 345.914 136.48001 339.539 136.151 332.71902 136.492C 336.02603 133.32 339.22302 130.422 340.17203 125.66C 341.11902 120.898 340.34802 115.04301 337.64102 110.773C 334.93402 106.503006 330.61002 102.783005 326.64102 99.304C 322.67 95.825 316.97903 92.953 313.217 90.107C 318.11002 88.355 323.10602 85.781006 327.89902 84.852005C 340.385 82.43001 351.143 86.134 363.186 93.41501C 370.18802 97.65001 375.979 101.67301 383.299 109.336006C 390.617 116.99801 399.694 131.05301 406.77902 139.388C 413.86404 147.72299 419.584 154.315 425.765 159.286C 431.94702 164.258 437.54202 165.674 443.42902 168.86699L443.42902 168.86699L452.605 178.611L460.031 169.422L471.98 170.773L474.449 157.361L485.41602 154.35599L483.627 136.27599L491.51202 130.68L485.58603 119.43099L491.60703 107.13899L483.75702 93.08799L486.78403 79.55899L477.696 71.81399L476.51 57.43699L463.832 52.60099L458.746 40.09299L444.492 39.93299L437.5 30.647991L427.904 31.319992L417.207 30.154991L411.158 25.688992L402.379 31.51699L391.756 25.977991L370.639 33.99499L384.405 22.022991L398.667 19.744991L409.593 16.959991L424.349 21.805992L437.337 18.515991L449.86002 25.918991L463.11203 25.185991L469.62204 36.86699L482.81705 38.389988L489.95605 51.376987L498.25507 55.90799L500.45807 72.54499L507.84906 79.55499L504.59906 94.11199L513.306 105.135994L505.14203 116.948L513.872 124.331L502.712 134.222L514.015 145.993L500.36502 150.39499L509.256 163.01999L498.10602 164.94398L505.41803 178.82599L492.85202 178.65898L499.182 189.05698L485.39902 187.39798L488.696 202.35698L478.28003 193.19398L474.71204 211.32399L467.52405 198.30598L463.63104 214.54298L454.75806 202.56998L455 219.596L445.193 204.28699C 447.261 212.97299 446.847 222.484 452.552 230.67299C 470.228 228.28099 481.781 223.827 495.323 210.79599C 507.65698 198.928 522.399 174.18298 526.391 158.48799C 530.946 140.57799 531.086 107.63799 526.6 89.40399C 522.282 71.84799 516.67 63.46199 506.64297 49.13599C 497.05896 38.95699 487.63297 28.20399 475.46896 20.94499C 457.613 10.29 434.717 7.417 414.367 7.694C 403.099 7.8479996 395.551 10.012 388.814 12.462C 377.033 16.746 367.611 26.091 355.634 30.709C 351.728 32.214 348.59702 32.261 345.521 30.618C 348.533 36.644 351.81 39.347 359.322 41.54C 364.75598 43.126 377.722 42.123 386.64798 41.299C 396.22998 40.414 401.22797 37.565 414.26898 37.744C 427.00497 37.919 437.097 42.757 442.615 45.912C 454 52.421997 462.164 59.643997 469.258 71.084C 473.154 77.366 475.883 84.454 477.805 91.687C 479.727 98.92 480.569 107.020996 480.692 114.102C 480.81497 121.183 480.274 127.504 478.542 133.87599C 474.491 148.79399 465.554 163.974 447.19598 161.629C 435.96198 160.193 419.02597 139.107 413.35397 131.371C 401.90897 115.758 390.13297 98.481 375.75198 85.479004C 366.98398 77.554 354.97897 72.100006 343.18997 71.021C 321.07297 68.997 314.51398 73.198006 297.86597 86.920006C 301.25296 88.00001 304.55896 88.59601 308.02997 90.16C 315.73297 93.631004 322.77795 98.117004 328.92297 103.871C 335.36197 109.902 338.25098 113.719 338.47998 122.355C 338.632 128.09 333.91397 132.688 329.589 136.824C 326.943 139.35701 323.44098 141.67601 321.29797 143.642C 318.45798 146.25099 314.94098 149.105 318.50897 153.261C 319.85098 154.823 322.18097 156.001 324.14597 157.46C 327.26495 159.77501 325.83698 168.37901 321.72797 170.66101C 316.46997 173.57802 310.18695 173.25201 305.85095 169.34702C 311.32394 168.52802 314.79996 167.80202 314.65796 163.32501C 314.57596 160.73001 311.27695 158.574 308.03897 157.098C 300.22998 153.53801 294.33197 154.063 286.55997 148.47101C 278.70996 142.82 278.53696 139.72601 276.41498 130.854C 272.62997 131.25 269.145 131.337 264.08398 133.013C 259.02298 134.688 253.42998 138.676 248.83499 139.663C 237.26299 142.153 234.95699 141.415 228.624 139.776C 217.474 136.89 202.956 141.831 188.534 146.444C 186.136 147.211 176.437 146.47 169.90799 148.761C 159.82399 152.299 145.67499 160.867 137.50299 167.74901C 125.12099 178.17801 108.84899 209.389 99.65499 245.21301C 98.68899 256.10303 101.78599 263.44 94.925995 268.759C 88.065994 274.078 88.256 287.70502 85.92999 291.527C 83.604 295.34802 80.910995 293.659 75.90399 299.026C 70.89699 304.393 68.34799 303.496 68.47399 313.644C 72.788994 310.807 79.079994 307.509 84.60399 307.31C 89.49599 307.133 89.54799 313.574 102.10399 301.161C 108.818985 294.52002 121.719986 294.31702 130.67099 291.388C 139.62299 288.459 155.754 282.423 171.90999 264.361C 188.066 246.299 195.79698 227.284 198.93 199.79399C 199.42899 204.66798 200.295 210.165 198.208 223.60999C 196.12099 237.05498 191.62299 252.15599 201.099 270.244L201.099 270.244L207.003 281.513C 203.488 276.716 196.62201 268.891 194.55501 263.315L194.55501 263.315L189.787 250.452C 179.12 267.19998 176.668 270.19598 161.85 282.195C 161.26001 289.639 161.115 297.403 163.548 304.526C 165.981 311.648 162.103 319.858 163.95401 324.549C 165.80502 329.24002 170.08601 326.57 171.48401 331.319C 172.882 336.068 170.75401 345.457 172.92201 350.086C 175.09001 354.715 180.40901 351.906 182.98701 353.401C 185.56502 354.897 186.40802 356.947 187.78702 358.914C 189.16502 360.88 187.24802 365.528 190.05202 367.037C 192.85501 368.547 197.22801 367.26797 200.14502 368.71698C 203.06203 370.166 203.50502 373.649 202.80602 376.77C 202.10602 379.891 198.98901 381.323 197.62001 384.496C 196.25201 387.67 196.40501 389.879 198.04901 392.793C 199.69301 395.708 203.33301 397.313 206.96101 398.784C 210.58902 400.255 215.68701 399.429 219.43102 401.46298C 223.17502 403.49698 226.54001 407.55 228.51701 410.49597C 230.49402 413.44098 231.04301 415.51898 230.94202 418.61597C 230.84001 421.71198 229.58401 425.27896 227.93102 428.26996C 226.27802 431.26096 222.63101 434.90097 228.32501 440.61295C 234.01901 446.32394 233.809 443.86194 237.07101 447.56696C 236.71602 441.15796 234.06801 435.93695 236.00401 431.11197C 237.94101 426.28696 243.75601 425.44797 246.82101 423.27795C 249.88602 421.10696 251.65102 418.12494 254.06702 415.54895C 254.03201 418.86395 254.38702 422.42795 254.01001 424.92395C 253.242 429.99896 251.744 434.50394 259.307 435.31796C 262.71402 435.68396 265.949 433.47498 269.534 432.14896C 267.656 435.51196 264.38998 438.21594 263.899 442.24097C 263.408 446.26398 263.998 450.68396 266.784 454.67697C 269.57098 458.66797 274.383 461.63196 277.909 463.97797C 281.434 466.32495 283.323 466.51297 286.03198 467.78195C 286.16498 471.73795 285.386 475.92496 285.83698 479.65094C 286.28796 483.37692 287.46198 486.67493 289.61597 489.75494C 291.77197 492.83594 295.22897 494.60294 298.48495 496.88095C 296.69995 492.72394 293.07895 488.77994 293.12796 484.40994C 293.17697 480.04095 294.48697 476.94394 298.74896 473.06696C 303.01096 469.18896 312.98895 465.82596 317.69397 462.05597C 322.39896 458.28497 323.91696 455.97498 325.60596 452.31396C 327.29495 448.65295 326.82495 442.75497 327.13696 439.46396C 328.68597 444.07394 328.90695 445.50696 329.40997 450.32996C 329.916 455.15396 326.59897 461.91995 325.19498 465.49097C 331.01498 462.67996 334.70898 458.18698 336.57397 453.79596C 337.82196 454.53595 337.19296 456.56497 337.65198 460.47495C 339.72598 458.41095 342.08398 456.82294 344.17197 454.87494C 346.26196 452.92892 348.55096 451.21695 349.58795 448.49994C 350.62296 445.78293 350.19894 442.89395 349.42795 439.73694C 348.65695 436.57993 345.12894 432.91895 343.22894 429.46594C 341.33093 426.01395 343.56494 422.62494 343.43594 418.46494C 339.63495 417.81192 336.40695 415.87595 332.03793 416.50494C 327.66693 417.13293 322.66092 422.03793 318.19394 422.09494C 313.72696 422.15195 311.21893 417.96695 307.55695 416.81696C 303.89496 415.66696 300.18994 415.79297 296.50793 415.28094C 301.17194 410.81296 319.27393 408.68494 331.65594 406.66595C 342.55093 404.88895 353.36295 403.86197 364.40195 403.70694C 369.33194 403.63693 375.66794 405.26495 379.09094 404.28094C 382.51694 403.29895 381.78595 400.96594 382.80194 398.42294C 385.64395 391.31494 384.24295 384.98495 382.69693 377.82693C 372.78693 376.66495 362.46094 375.24292 352.47592 376.00995C 342.71393 376.75995 331.15393 381.40094 321.08493 381.71494C 312.33093 381.98694 299.36792 380.03793 291.85092 375.45593C 282.66492 369.85693 275.55792 357.83194 273.0349 353.97095C 268.9259 347.68195 263.74292 335.34393 260.5889 329.70294C 257.4369 324.06195 256.7419 322.48395 254.1189 320.12894C 251.4959 317.77493 247.9029 317.59293 244.7959 316.32394C 248.3779 316.68994 252.2889 315.55594 255.5429 317.42194C 260.4319 320.22693 265.9039 331.85294 268.9459 336.91193C 272.16888 326.10794 271.4169 321.85992 280.7429 315.7679C 273.2269 324.19193 273.0399 330.5729 271.2079 340.4909C 277.4579 350.7489 286.14688 367.0889 297.51688 371.6229C 301.62387 373.2619 308.67688 374.2899 313.11688 374.8389C 326.93488 376.5499 340.26288 372.1709 353.8339 368.8199C 363.7539 366.36987 373.8199 367.35687 385.8849 368.0659C 389.9809 368.30588 399.6389 365.8419 401.6389 361.69888C 402.71887 359.4639 402.6389 356.7779 401.0879 354.39587C 399.53488 352.0139 395.3989 350.86188 393.1819 348.71786C 390.96487 346.57385 389.68988 344.02887 387.94388 341.68387C 378.72888 343.45187 371.14886 344.13086 364.30887 344.31686C 369.21487 342.29587 373.92188 341.14285 379.02786 339.14587C 384.13385 337.1489 389.93185 333.87088 394.05286 331.15088C 398.17386 328.42987 400.80487 326.85187 403.78687 323.68588C 406.76688 320.51788 410.58987 317.25488 412.78687 313.38287C 414.98587 309.51086 415.32587 305.17987 415.44885 300.38788C 415.57184 295.5969 415.36484 288.87387 413.51685 285.0139C 411.67084 281.15488 408.11084 279.9839 405.25085 279.0709C 402.38986 278.1579 400.43085 280.4669 397.45584 280.7789C 394.47885 281.0909 391.69785 282.9669 387.39383 280.9429C 383.0898 278.9189 377.98782 274.7989 373.63583 268.6839C 369.28583 262.5679 366.17484 252.5719 361.73984 244.8819C 354.09485 231.6259 344.56784 219.24289 335.45685 206.9599C 334.70685 203.9309 333.57983 199.7449 333.20483 195.6359C 332.55084 188.47589 332.42783 181.0379 334.64984 174.05789C 336.35284 168.71089 338.82983 163.0629 344.42883 160.86989C 346.66882 159.99188 349.50284 159.64389 351.50482 160.3859C 353.50882 161.12689 355.47382 163.3879 354.68683 165.9999C 353.82184 168.87189 351.83182 168.94989 350.47983 170.39989C 348.1848 172.8599 347.2668 174.66489 346.39984 177.73189C 348.87985 177.6919 352.23184 177.50288 354.26883 178.0389C 356.92682 178.73889 359.40182 180.5009 360.75082 184.26689C 357.57883 181.45389 356.00284 180.16289 352.04382 180.0629C 350.22983 180.0179 348.02582 180.6669 346.01883 180.9689C 345.26883 183.4089 344.82782 186.40091 343.76883 188.28891C 342.70984 190.17691 340.64783 189.7239 339.87384 191.92992C 339.1 194.132 339.055 197.718 339.445 200.613zM367.16 197.306C 368.375 197.785 368.838 197.89 370.377 199.061C 371.91602 200.23201 374.039 201.401 375.25803 204.199C 376.47903 206.998 376.42203 211.326 376.16202 213.089C 375.092 212.77501 373.63303 212.987 372.523 212.03801C 371.41602 211.089 370.755 208.94 369.33502 208.02C 367.91302 207.101 366.72803 207.302 365.157 207.103C 365.96402 209.399 366.35602 211.696 365.98102 213.778C 365.16702 218.323 362.49503 220.625 358.169 221.169C 356.28 221.406 353.28 220.78401 351.63602 220.485C 352.398 222.187 353.68903 223.678 354.45203 225.38C 358.11002 224.851 360.821 224.92601 362.78802 224.00601C 364.75504 223.08601 366.864 221.02501 369.38803 220.15201C 371.91302 219.279 374.16504 219.29301 376.92703 218.86201C 374.75104 220.73701 373.32303 222.61302 371.15002 224.48802C 372.74402 229.12102 374.338 233.75302 375.93103 238.38503C 379.31003 240.49902 382.48004 241.61302 386.73804 244.22302C 390.99805 246.83401 396.10504 251.50403 401.65204 254.05103C 407.19904 256.59802 410.50204 257.98404 416.29803 259.07703C 422.09305 260.17 426.70404 264.864 432.40704 265.627C 438.11005 266.39 448.76205 266.544 453.15704 266.11502C 458.14703 265.62802 464.63004 263.053 465.21204 257.58203C 461.02805 258.61404 454.63803 257.68802 451.41104 249.81503C 449.97903 246.31903 450.68103 239.89003 448.48904 235.75603C 446.29803 231.62103 443.24304 230.29402 439.59305 225.20003C 435.94305 220.10603 429.97205 212.07103 426.62006 205.24603C 423.27005 198.42203 422.48105 190.69203 419.64706 184.57703C 416.81305 178.46303 412.53806 173.52403 409.22507 168.81102C 401.99106 158.51102 396.15707 151.47202 384.23907 146.27602C 378.50708 143.77702 371.98108 143.11102 365.85208 141.52802C 363.3581 142.64502 359.93808 143.87901 359.3311 146.79602C 358.7241 149.71303 359.89008 154.02103 362.00708 156.21101C 365.55008 159.87201 370.80008 163.82901 372.86407 169.64801C 374.19006 173.382 374.57507 185.90001 373.4261 189.29701C 372.234 192.824 369.463 194.957 367.16 197.306zM368.314 226.935C 367.207 227.89 366.363 228.871 364.582 229.664C 362.803 230.457 360.373 230.662 358.012 231.252C 361.323 236.406 364.801 241.614 367.973 247.033C 371.147 252.451 373.897 258.384 376.926 264.058C 376.783 260.806 376.975 257.33902 376.50198 254.30002C 376.029 251.26202 374.65198 248.60301 373.287 244.04202C 371.924 239.481 370.246 233.276 368.314 226.935zM279.229 113.611C 278.762 118.681 279.62 126.607 280.67 131.571C 281.928 137.513 283.139 140.594 287.961 144.174C 296.791 150.72899 302.428 149.624 309.221 153.425C 312.453 155.23401 316.549 158.266 317.74402 161.47101C 318.93903 164.67601 316.95502 168.156 314.50403 169.524C 318.79102 170.162 323.59802 165.329 321.59204 160.367C 320.60403 157.925 315.90103 156.837 314.45905 154.373C 313.02005 151.91 313.02304 149.37401 313.70105 146.872C 314.92606 142.362 323.84906 138.26399 327.00204 134.69899C 331.85403 129.21298 333.71704 124.62399 330.96906 117.55899C 327.11005 107.63399 312.20105 99.66999 303.27805 95.774994C 299.19205 93.992 296.90103 93.86499 293.71405 92.909996C 300.23904 96.73399 307.11804 99.78 310.41904 108.327995C 313.17505 115.466995 310.78802 118.157 310.88004 124.37299C 310.92303 127.25499 314.71805 128.696 316.40305 130.517C 317.87006 132.09999 317.75104 133.275 316.57904 135.45999C 316.45004 133.489 315.60803 132.01799 314.09503 130.94699C 311.59705 129.176 308.90604 129.55699 307.57504 125.925995C 305.55505 120.406 309.56104 115.17799 305.05704 108.979996C 301.68805 104.342995 297.20703 99.153 291.16205 99.017C 288.30106 98.951996 286.15005 99.383995 283.09406 100.288L283.09406 100.288L279.02005 95.385L278.92606 95.321C 270.63907 87.757996 264.96906 81.525 253.34406 76.326996C 241.71906 71.13 235.99005 70.342995 222.66106 70.63899C 209.33206 70.93399 196.10406 72.048996 180.66606 85.36199C 165.22906 98.67499 125.44206 149.65399 115.79306 156.10599C 106.14506 162.55798 104.00806 164.74399 91.95206 164.747C 79.89606 164.75 61.080055 147.69699 60.343056 126.384995C 59.605057 105.07199 59.309055 97.496994 74.124054 71.82199C 88.94 46.146 115.78 38.262 135.694 35.6C 155.60901 32.938 167.576 39.952 182.307 39.985C 197.037 40.019 211.595 37.476 215.888 25.761002C 213.787 27.012001 210.972 28.422 203.056 28.007002C 195.14 27.592001 184.164 18.427002 171.817 12.286002C 159.47 6.1460023 145.73 5.427002 128.107 5.0940022C 110.48399 4.7610025 88.494 6.108 66.708 17.869C 44.921997 29.63 30.050999 42.109 17.415 65.127C 4.779 88.146 2.891 106.94 4.928 134.811C 6.965 162.682 15.561001 183.41 32.112 203.809C 48.663 224.20801 65.203995 234.18901 95.03 237.90001L95.03 237.90001L101.309 210.20401L90.1 226.29001L90.377 208.399L80.238 220.98L75.791 203.918L67.577 217.597L63.497 198.547L51.594 208.174L55.362003 192.455L39.612003 194.198L46.847004 183.272L32.486004 183.447L40.842003 168.86L28.1 166.837L38.260002 153.57L22.660002 148.945L35.576004 136.57701L22.823004 126.18401L32.798004 118.42601L23.470005 106.01401L33.420006 94.43101L29.706005 79.13501L38.155006 71.77001L40.670006 54.28901L50.152008 49.527008L58.31001 35.88101L73.38901 34.280006L80.82901 22.006006L95.974014 22.777006L110.28601 14.998007L125.12901 18.455008L141.98901 13.363008L154.47601 16.289007L170.77202 18.684008L186.50502 31.264008L162.37202 22.840008L150.23203 28.661007L140.19702 22.536007L133.28802 27.229008L121.06303 28.453007L110.1 27.745L102.108 37.501L85.817 37.669L80.006004 50.811996L65.52 55.894L64.16499 71.001L53.776993 79.139L57.23799 93.354996L48.26699 108.119995L55.14899 121.034996L48.37599 132.855L57.386993 138.735L55.342995 157.733L67.87499 160.891L70.69799 174.98401L84.35399 173.565L92.83799 183.22101L103.32399 172.98201C 122.43999 163.45001 130.312 158.11801 145.20999 142.005C 162.16899 123.662 171.88899 106.703 194.47899 94.144005C 210.68098 85.136 223.896 81.894005 242.096 85.039C 259.184 87.991005 264.906 98.241 277.491 109.039C 278.825 106.624 279.096 105.984 281.294 104.206C 280.604 107.342 279.508 110.595 279.229 113.611z" stroke="none" fill="#000000" fill-rule="nonzero" />
</g>
</svg>